# xmcd
# Copyright (C) 1995-1998 Ti Kan
#
# Track frame offsets:
#       150
#       14574
#       29126
#       43213
#       56917
#       70416
#       85005
#       100465
#       116312
#       136935
#       150764
#       165580
#       180643
#       195487
#
# Disc length: 2986 seconds
#
# Revision: 0
# Processed by: cddbd v1.5.2PL0 Copyright (c) Steve Scherf et al.
# Submitted via: CD-Transfer v1.0
#
DISCID=ba0ba80e
DTITLE=Alpentrio Tirol - 
DYEAR=1900
DGENRE=
TTITLE0=Engel müssen fliegen
TTITLE1=Und ich schenk dir dann Rosen
TTITLE2=Der letzte schöne Sommer
TTITLE3=Keine Nacht mehr ohne Sterne
TTITLE4=Ich hab tirol mein Herz geschenkt
TTITLE5=Ich wünsch mit die ewigkeit
TTITLE6=wo warst du?
TTITLE7=Nur ein Glas gegen das Heimweh
TTITLE8=Tiroler Lieder Potpourri
TTITLE9=Ein stilles Gebet am Gipfelkreuz
TTITLE10=Schenk mir noch einmal eine Nacht
TTITLE11=Bella Romantica
TTITLE12=Dem Land Tirol die Treue
TTITLE13=Fox Medley
EXTD=
EXTT0=
EXTT1=
EXTT2=
EXTT3=
EXTT4=
EXTT5=
EXTT6=
EXTT7=
EXTT8=
EXTT9=
EXTT10=
EXTT11=
EXTT12=
EXTT13=
PLAYORDER=
